<svg xmlns="http://www.w3.org/2000/svg" viewBox="0 0 516.72 92.37"><title>BlackCodemodR</title><g id="Layer_2" data-name="Layer 2"><g id="Layer_1-2" data-name="Layer 1"><path d="M46.48,26.42C46.36,15.45,44.12,10.5,29,10.5c-15.81,0-17.69,5.66-17.69,20.05V61.7c0,14.39,2.36,20.05,17.69,20.05s17.7-3.42,17.7-17.81H57.45c0,17.58-1.89,28.43-28.43,28.43S0,81.52,0,61.58V30.67C0,10.73,4.72,0,29,0,52.61,0,57.21,8.85,57.45,26.42Z"/><path d="M65.88,69.38V52.16c0-16,8.66-21.85,22.58-21.85S111,36.19,111,52.16V69.38c0,16.39-6.6,23-22.58,23C72.17,92.37,65.88,85.77,65.88,69.38Zm35.36,0V52.16c0-10.93-4.64-13.09-12.78-13.09S75.67,41.24,75.67,52.16V69.38c0,10.93,4,14.43,12.78,14.43C97.53,83.81,101.24,80.31,101.24,69.38Z"/><path d="M164.3,91.34H156l-1.24-7.94c-1.86,5.26-7.94,8.25-14.95,8.25-12.06,0-20.41-5.46-20.41-21.75V54c0-16.29,7.73-23.4,20.41-23.4,6.49,0,11.24.93,14.54,5.26V10.72h9.9ZM142,40.1c-8.76,0-12.78,3.5-12.78,14.12V70c0,9.9,4,12.47,12.06,12.47,8.35-.31,13.09-3.92,13.09-15.77v-13C154.4,43.4,150.79,40.1,142,40.1Z"/><path d="M217,73.81C217,85.46,210.65,92,195,92c-16.08,0-22.27-5.88-22.27-22.06V52.27c0-15.77,8.56-21.55,22.27-21.55,13.51,0,22.27,5.88,22.27,21.55V65.15H182.41v4.54c0,10.72,3.92,13.2,12.58,13.2s12.58-2.89,12.58-9.07ZM182.41,56.6h25.46V52.27c0-10.62-5.15-12.89-12.89-12.89s-12.58,2.16-12.58,12.89Z"/><path d="M225.67,31h8.25l.72,6.6c3.81-5.57,9.48-7.32,15.46-7.32,7.83,0,13.61,2.37,16.49,7.42,3.92-4.85,9.9-7.42,18.45-7.42,13.2,0,20.41,5.05,20.41,22.06v39h-9.9V52.16c0-8.87-4.64-12.47-11.75-12.47-8.76,0-13.3,4.64-13.3,15.36V91.34h-9.9V52c0-10.82-4.64-12.47-12-12.47s-13.09,3.4-13.09,12.58V91.34h-9.9Z"/><path d="M313.88,69.38V52.16c0-16,8.66-21.85,22.58-21.85S359,36.19,359,52.16V69.38c0,16.39-6.6,23-22.58,23C320.17,92.37,313.88,85.77,313.88,69.38Zm35.36,0V52.16c0-10.93-4.64-13.09-12.78-13.09s-12.78,2.16-12.78,13.09V69.38c0,10.93,4,14.43,12.78,14.43C345.53,83.81,349.24,80.31,349.24,69.38Z"/><path d="M412.3,91.34h-8.25l-1.24-7.94c-1.86,5.26-7.94,8.25-14.95,8.25-12.06,0-20.41-5.46-20.41-21.75V54c0-16.29,7.73-23.4,20.41-23.4,6.49,0,11.24.93,14.54,5.26V10.72h9.9ZM390,40.1c-8.76,0-12.78,3.5-12.78,14.12V70c0,9.9,4,12.47,12.06,12.47,8.35-.31,13.09-3.92,13.09-15.77v-13C402.4,43.4,398.79,40.1,390,40.1Z"/><path d="M448.59,92.25c-6.71,0-10.44-2.74-12.38-5C433.06,83.5,431.9,78,433,71.65l3.23-19.72a.72.72,0,0,0-.18-.67,4.15,4.15,0,0,0-3-1.08h-.33l-3.67.28,1.87-11.41L433.3,39h2.11c2.88,0,3-.48,3-1l3-19.08c1.83-11.28,9.16-17.49,20.65-17.49h3.41l-1.92,11.81-2.76,0c-4.76,0-6.91,1.86-7.68,6.62l-3,19.07a10.25,10.25,0,0,1-4.26,6.72q.27.3.5.63a8.37,8.37,0,0,1,1.49,6.35l-3.23,20c-.54,3.35-.34,5.79.58,6.87.22.26.88,1,3.4,1l.76,0,3.6-.2-1.94,12Z"/><path d="M497.43,52.71l13,39.65h-12.6L485.77,53.9l-23-1.56,1.67-10.44h26.8c5.54,0,12.38-2.75,13.48-15.9.67-8,.12-9.31-1.73-11.32-1.22-1.32-3.06-1.58-5.65-1.58H469.56l1.87-11.7h27.34c5.5,0,9.83,1.71,12.88,5.09,4.23,4.68,5.82,9.06,4.73,19.74S511.15,50,497.43,52.71Z"/></g></g></svg>