<svg xmlns="http://www.w3.org/2000/svg" viewBox="0 0 604.76 108.11"><defs><style>.cls-1{fill:#fff;}.cls-2{fill:#12c1e7;}</style></defs><title>WhiteBlueCodemodR</title><g id="Layer_2" data-name="Layer 2"><g id="Layer_1-2" data-name="Layer 1"><path class="cls-1" d="M54.4,30.93C54.26,18.09,51.64,12.29,34,12.29c-18.5,0-20.71,6.63-20.71,23.47V72.21C13.25,89.05,16,95.68,34,95.68s20.71-4,20.71-20.85H67.24C67.24,95.4,65,108.11,34,108.11S0,95.4,0,72.07V35.9C0,12.56,5.52,0,34,0,61.58,0,67,10.36,67.24,30.93Z"/><path class="cls-1" d="M77.1,81.2V61.05c0-18.7,10.14-25.58,26.42-25.58S130,42.35,130,61.05V81.2c0,19.18-7.72,26.9-26.42,26.9C84.46,108.11,77.1,100.38,77.1,81.2Zm41.38,0V61.05c0-12.79-5.43-15.32-15-15.32s-15,2.53-15,15.32V81.2c0,12.79,4.71,16.89,15,16.89C114.14,98.09,118.49,94,118.49,81.2Z"/><path class="cls-1" d="M192.29,106.9h-9.65l-1.45-9.29c-2.17,6.15-9.29,9.65-17.49,9.65-14.12,0-23.89-6.4-23.89-25.46V63.22c0-19.06,9-27.39,23.89-27.39,7.6,0,13.15,1.09,17,6.15V12.55h11.58Zm-26.06-60c-10.26,0-15,4.1-15,16.53V81.92c0,11.58,4.71,14.6,14.12,14.6,9.77-.36,15.32-4.58,15.32-18.46V62.86C180.71,50.8,176.48,46.94,166.23,46.94Z"/><path class="cls-1" d="M254,86.39c0,13.63-7.48,21.23-25.82,21.23-18.82,0-26.06-6.88-26.06-25.82V61.17c0-18.46,10-25.22,26.06-25.22,15.81,0,26.06,6.88,26.06,25.22V76.25H213.49v5.31c0,12.55,4.59,15.44,14.72,15.44s14.72-3.38,14.72-10.62ZM213.49,66.24h29.8V61.17c0-12.43-6-15.08-15.08-15.08s-14.72,2.53-14.72,15.08Z"/><path class="cls-1" d="M264.12,36.32h9.65l.84,7.72c4.46-6.51,11.1-8.57,18.1-8.57,9.17,0,15.93,2.77,19.3,8.69,4.58-5.67,11.58-8.69,21.6-8.69,15.44,0,23.89,5.91,23.89,25.82V106.9H345.92V61.05c0-10.38-5.43-14.6-13.75-14.6-10.26,0-15.56,5.43-15.56,18V106.9H305V60.81c0-12.67-5.43-14.6-14-14.6s-15.32,4-15.32,14.72v46H264.12Z"/><path class="cls-1" d="M367.36,81.2V61.05c0-18.7,10.14-25.58,26.42-25.58s26.42,6.88,26.42,25.58V81.2c0,19.18-7.72,26.9-26.42,26.9C374.72,108.11,367.36,100.38,367.36,81.2Zm41.38,0V61.05c0-12.79-5.43-15.32-15-15.32s-15,2.53-15,15.32V81.2c0,12.79,4.71,16.89,15,16.89C404.4,98.09,408.74,94,408.74,81.2Z"/><path class="cls-1" d="M482.54,106.9h-9.65l-1.45-9.29c-2.17,6.15-9.29,9.65-17.49,9.65-14.12,0-23.89-6.4-23.89-25.46V63.22c0-19.06,9-27.39,23.89-27.39,7.6,0,13.15,1.09,17,6.15V12.55h11.58Zm-26.06-60c-10.26,0-15,4.1-15,16.53V81.92c0,11.58,4.71,14.6,14.12,14.6,9.77-.36,15.32-4.58,15.32-18.46V62.86C471,50.8,466.74,46.94,456.48,46.94Z"/><path class="cls-2" d="M525,108c-7.85,0-12.21-3.2-14.49-5.89-3.69-4.35-5-10.82-3.81-18.22l3.78-23.08a.84.84,0,0,0-.22-.78,4.86,4.86,0,0,0-3.46-1.26h-.39l-4.3.32,2.19-13.35,2.79-.08h2.46c3.37,0,3.46-.56,3.56-1.21l3.5-22.33C518.8,8.89,527.38,1.63,540.83,1.63h4l-2.24,13.83-3.23,0c-5.57,0-8.09,2.17-9,7.75l-3.5,22.32a12,12,0,0,1-5,7.86q.31.35.59.74a9.79,9.79,0,0,1,1.74,7.43L520.42,85c-.64,3.92-.39,6.78.68,8,.26.3,1,1.21,4,1.21l.89,0,4.21-.23-2.27,14Z"/><path class="cls-1" d="M582.18,61.69l15.24,46.41H582.68l-14.15-45-26.94-1.83L543.54,49h31.37c6.49,0,14.5-3.22,15.78-18.61.79-9.39.14-10.89-2-13.25-1.42-1.54-3.58-1.85-6.62-1.85H549.56l2.19-13.69h32c6.44,0,11.51,2,15.07,6,5,5.47,6.81,10.6,5.54,23.11S598.24,58.52,582.18,61.69Z"/></g></g></svg>